<svg width="161" height="21" viewBox="0 0 161 21" fill="none" xmlns="http://www.w3.org/2000/svg">
<g clip-path="url(#clip0_8_459)">
<mask id="mask0_8_459" style="mask-type:luminance" maskUnits="userSpaceOnUse" x="0" y="3" width="21" height="13">
<path d="M20.6826 3.39966H0.682617V15.8925H20.6826V3.39966Z" fill="white"/>
</mask>
<g mask="url(#mask0_8_459)">
<path fill-rule="evenodd" clip-rule="evenodd" d="M20.6433 15.2451C20.6433 15.613 20.3429 15.9135 19.9751 15.9135H1.32745C0.959569 15.9135 0.65918 15.613 0.65918 15.2451V4.08886C0.65918 3.7209 0.959569 3.42041 1.32745 3.42041H19.9751C20.343 3.42041 20.6434 3.7209 20.6434 4.08886L20.6433 15.2451Z" fill="#14477C"/>
<path fill-rule="evenodd" clip-rule="evenodd" d="M13.0482 13.2511L13.2321 13.2475L13.4163 13.2362L13.5964 13.2098L13.7729 13.1797L13.9456 13.1384L14.1182 13.0935L14.2834 13.0333L14.4487 12.9697L14.6061 12.898L14.7601 12.8193L14.9104 12.7328L15.0569 12.6391L15.1995 12.5378L15.3347 12.4326L15.4622 12.32L15.5896 12.1996L15.7062 12.0757L15.819 11.9443L15.9278 11.809L16.0291 11.6703L16.1192 11.5237L16.2095 11.3737L16.2844 11.2197L16.3596 11.0583L16.4234 10.8966L16.4798 10.7278L16.5286 10.5587L16.5697 10.386L16.6 10.2056L16.6225 10.0293L16.6373 9.84512L16.641 9.6614L16.6373 9.47716L16.6225 9.29315L16.6 9.11665L16.5697 8.94042L16.5286 8.76743L16.4798 8.59865L16.4234 8.4295L16.3596 8.26814L16.2844 8.11031L16.2095 7.9564L16.1192 7.80624L16.0291 7.65978L15.9278 7.52094L15.819 7.38573L15.7062 7.25435L15.5896 7.13041L15.4622 7.01394L15.3347 6.9013L15.1995 6.79252L15.0569 6.69475L14.9104 6.6008L14.7601 6.5146L14.6061 6.43556L14.4487 6.36423L14.2834 6.3006L14.1182 6.24417L13.9456 6.19541L13.7729 6.1541L13.5964 6.12408L13.4163 6.1015L13.2321 6.08639L13.0482 6.08276L12.8643 6.08639L12.6842 6.1015L12.5039 6.12408L12.3276 6.1541L12.1547 6.19541L11.9821 6.24417L11.8167 6.3006L11.6553 6.36423L11.4976 6.43556L11.3437 6.5146L11.1936 6.6008L11.0471 6.69475L10.9083 6.79252L10.7729 6.9013L10.6416 7.01394L10.5179 7.13041L10.3976 7.25435L10.2888 7.38573L10.1798 7.52094L10.0822 7.65978L9.98838 7.80624L9.90219 7.9564L9.82317 8.11031L9.75188 8.26814L9.68798 8.4295L9.63182 8.59865L9.58311 8.76743L9.5415 8.94042L9.51176 9.11665L9.48913 9.29315L9.47405 9.47716L9.47021 9.6614L9.47405 9.84512L9.48913 10.0293L9.51176 10.2056L9.5415 10.386L9.58311 10.5587L9.63182 10.7278L9.68798 10.8966L9.75188 11.0583L9.82317 11.2197L9.90219 11.3737L9.98838 11.5237L10.0822 11.6703L10.1798 11.809L10.2888 11.9443L10.3976 12.0757L10.5179 12.1996L10.6416 12.32L10.7729 12.4326L10.9083 12.5378L11.0471 12.6391L11.1936 12.7328L11.3437 12.8193L11.4976 12.898L11.6553 12.9697L11.8167 13.0333L11.9821 13.0935L12.1547 13.1384L12.3276 13.1797L12.5039 13.2098L12.6842 13.2362L12.8643 13.2475L13.0482 13.2511Z" fill="#FBB230"/>
<path fill-rule="evenodd" clip-rule="evenodd" d="M8.25387 13.2511L8.43783 13.2475L8.61788 13.2362L8.79828 13.2098L8.9745 13.1797L9.1474 13.1384L9.32029 13.0935L9.48528 13.0333L9.64659 12.9697L9.80442 12.898L9.95828 12.8193L10.1084 12.7328L10.2548 12.6391L10.3936 12.5378L10.5291 12.4326L10.6605 12.32L10.7841 12.1996L10.9044 12.0757L11.0134 11.9443L11.1222 11.809L11.2197 11.6703L11.3136 11.5237L11.3998 11.3737L11.4788 11.2197L11.5501 11.0583L11.614 10.8966L11.6701 10.7278L11.7191 10.5587L11.7605 10.386L11.7903 10.2056L11.8128 10.0293L11.828 9.84512L11.8318 9.6614L11.828 9.47716L11.8128 9.29315L11.7903 9.11665L11.7605 8.94042L11.7191 8.76743L11.6701 8.59865L11.614 8.4295L11.5501 8.26814L11.4788 8.11031L11.3998 7.9564L11.3136 7.80624L11.2197 7.65978L11.1222 7.52094L11.0134 7.38573L10.9044 7.25435L10.7841 7.13041L10.6605 7.01394L10.5291 6.9013L10.3936 6.79252L10.2548 6.69475L10.1084 6.6008L9.95828 6.5146L9.80442 6.43556L9.64659 6.36423L9.48528 6.3006L9.32029 6.24417L9.1474 6.19541L8.9745 6.1541L8.79828 6.12408L8.61788 6.1015L8.43783 6.08639L8.25387 6.08276L8.06998 6.08639L7.88579 6.1015L7.70568 6.12408L7.52923 6.1541L7.35679 6.19541L7.1839 6.24417L7.01869 6.3006L6.85347 6.36423L6.69593 6.43556L6.54207 6.5146L6.39169 6.6008L6.24552 6.69475L6.10283 6.79252L5.96744 6.9013L5.83992 7.01394L5.71239 7.13041L5.59594 7.25435L5.48303 7.38573L5.37432 7.52094L5.27298 7.65978L5.18289 7.80624L5.09263 7.9564L5.01768 8.11031L4.94254 8.26814L4.87867 8.4295L4.82251 8.59865L4.77346 8.76743L4.73607 8.94042L4.70214 9.11665L4.67987 9.29315L4.66471 9.47716L4.66113 9.6614L4.66471 9.84512L4.67987 10.0293L4.70214 10.2056L4.73607 10.386L4.77346 10.5587L4.82251 10.7278L4.87867 10.8966L4.94254 11.0583L5.01768 11.2197L5.09263 11.3737L5.18289 11.5237L5.27298 11.6703L5.37432 11.809L5.48303 11.9443L5.59594 12.0757L5.71239 12.1996L5.83992 12.32L5.96744 12.4326L6.10283 12.5378L6.24552 12.6391L6.39169 12.7328L6.54207 12.8193L6.69593 12.898L6.85347 12.9697L7.01869 13.0333L7.1839 13.0935L7.35679 13.1384L7.52923 13.1797L7.70568 13.2098L7.88579 13.2362L8.06998 13.2475L8.25387 13.2511Z" fill="#EB2230"/>
<path fill-rule="evenodd" clip-rule="evenodd" d="M10.2324 7.45703H12.1361V7.26172H10.3976L10.2324 7.45703Z" fill="#FBB230"/>
<path fill-rule="evenodd" clip-rule="evenodd" d="M9.94775 7.88879H12.1367V7.69348H10.0604L9.94775 7.88879Z" fill="#FBB230"/>
<path fill-rule="evenodd" clip-rule="evenodd" d="M9.7334 8.32091H12.1363V8.12561H9.81982L9.7334 8.32091Z" fill="#FBB230"/>
<path fill-rule="evenodd" clip-rule="evenodd" d="M9.58691 8.75247H12.1363V8.56104H9.64691L9.58691 8.75247Z" fill="#FBB230"/>
<path fill-rule="evenodd" clip-rule="evenodd" d="M9.67256 10.8481H12.1431V10.6528H9.61279L9.67256 10.8481Z" fill="#FBB230"/>
<path fill-rule="evenodd" clip-rule="evenodd" d="M9.85321 11.28H12.1434V11.0847H9.76318L9.85321 11.28Z" fill="#FBB230"/>
<path fill-rule="evenodd" clip-rule="evenodd" d="M10.1122 11.7117H12.1433V11.5164H9.98828L10.1122 11.7117Z" fill="#FBB230"/>
<path fill-rule="evenodd" clip-rule="evenodd" d="M10.4656 12.1435H12.1437V11.9482H10.293L10.4656 12.1435Z" fill="#FBB230"/>
<path fill-rule="evenodd" clip-rule="evenodd" d="M9.50049 9.18453H12.136V8.99292H9.53797L9.50049 9.18453Z" fill="#FBB230"/>
<path fill-rule="evenodd" clip-rule="evenodd" d="M11.1069 10.4162H12.1132V10.2209H11.1446L11.1069 10.4162Z" fill="#FBB230"/>
<path fill-rule="evenodd" clip-rule="evenodd" d="M11.186 9.98412H12.1135V9.78882H11.2237L11.186 9.98412Z" fill="#FBB230"/>
<path fill-rule="evenodd" clip-rule="evenodd" d="M9.43311 9.78882H9.69586V9.98412H9.44835L9.43311 9.78882Z" fill="#FBB230"/>
<path fill-rule="evenodd" clip-rule="evenodd" d="M16.2962 11.6815C16.3901 11.6815 16.4653 11.7603 16.4653 11.8503C16.4653 11.9443 16.3901 12.0194 16.2962 12.0194C16.2023 12.0194 16.1274 11.9443 16.1274 11.8503C16.1274 11.7603 16.2023 11.6815 16.2962 11.6815ZM16.2962 11.7115C16.3752 11.7115 16.4388 11.7754 16.4388 11.8503C16.4388 11.9294 16.3753 11.9932 16.2962 11.9932C16.2213 11.9932 16.1571 11.9294 16.1571 11.8503C16.1571 11.7754 16.2213 11.7115 16.2962 11.7115Z" fill="#FBB230"/>
<path d="M16.2324 11.9255V11.7828H16.2924C16.3073 11.7828 16.3186 11.7828 16.3262 11.7867C16.3335 11.7903 16.3375 11.7941 16.3411 11.7977C16.3447 11.8054 16.3485 11.8129 16.3485 11.8203C16.3485 11.8316 16.3447 11.8428 16.3411 11.8467C16.3334 11.8542 16.3224 11.858 16.3108 11.8616C16.3186 11.8655 16.3223 11.8693 16.3262 11.8729C16.3298 11.8767 16.3375 11.8842 16.3411 11.8954L16.3598 11.9255H16.3262L16.3034 11.8916C16.2994 11.8803 16.2922 11.8768 16.2885 11.8729C16.2885 11.8693 16.2846 11.8693 16.281 11.8655C16.2772 11.8655 16.2733 11.8655 16.2659 11.8655H16.262V11.9255H16.2324ZM16.2622 11.8428H16.2811C16.296 11.8428 16.3035 11.8428 16.3073 11.8393C16.3109 11.8393 16.3151 11.8393 16.3151 11.8354C16.3186 11.8316 16.3186 11.828 16.3186 11.8241C16.3186 11.8203 16.3186 11.8166 16.3151 11.8129C16.3109 11.8089 16.3073 11.8089 16.3035 11.8054C16.3035 11.8054 16.296 11.8054 16.2847 11.8054H16.2622V11.8428H16.2622Z" fill="#FBB230"/>
<path fill-rule="evenodd" clip-rule="evenodd" d="M16.2581 10.2698C16.352 10.2698 16.4269 10.3449 16.4269 10.4389C16.4269 10.5328 16.352 10.6077 16.2581 10.6077C16.1643 10.6077 16.0894 10.5328 16.0894 10.4389C16.0894 10.3449 16.1643 10.2698 16.2581 10.2698ZM16.2581 10.2997C16.3371 10.2997 16.4008 10.3636 16.4008 10.4388C16.4008 10.5176 16.3372 10.5815 16.2581 10.5815C16.1792 10.5815 16.1155 10.5176 16.1155 10.4388C16.1155 10.3636 16.1791 10.2997 16.2581 10.2997Z" fill="white"/>
<path d="M16.1943 10.51V10.3708H16.2544C16.2695 10.3708 16.2808 10.3708 16.2883 10.3747C16.292 10.3747 16.2992 10.3822 16.3031 10.386C16.3069 10.3934 16.3105 10.4009 16.3105 10.4086C16.3105 10.4199 16.3069 10.4273 16.2992 10.4347C16.2957 10.4422 16.2844 10.446 16.2731 10.4499C16.277 10.4534 16.2844 10.4573 16.2883 10.4612C16.292 10.4647 16.2957 10.4722 16.3031 10.4835L16.3221 10.51H16.2882L16.2656 10.4799C16.2581 10.4686 16.2543 10.4612 16.2505 10.4612C16.2469 10.4573 16.2469 10.4534 16.2433 10.4534C16.2391 10.4534 16.2356 10.4534 16.2281 10.4534H16.2207V10.5099L16.1943 10.51ZM16.2208 10.4312H16.2433C16.2582 10.4312 16.2656 10.4312 16.2695 10.4274C16.2731 10.4274 16.277 10.4235 16.277 10.4235C16.2808 10.4199 16.2808 10.416 16.2808 10.4122C16.2808 10.4086 16.277 10.4009 16.277 10.4009C16.2731 10.3973 16.2695 10.3934 16.2657 10.3934C16.2619 10.3934 16.2544 10.3934 16.2433 10.3934H16.2208L16.2208 10.4312Z" fill="white"/>
<path fill-rule="evenodd" clip-rule="evenodd" d="M13.8447 10.5361L14.0887 9.25964H14.3927L14.4304 9.39099C14.4866 9.33454 14.5804 9.25964 14.7682 9.25964L14.6744 9.59758C14.5918 9.59758 14.464 9.58245 14.3591 9.83025C14.2803 10.0181 14.2426 10.3296 14.2013 10.5361H13.8447Z" fill="white"/>
<path fill-rule="evenodd" clip-rule="evenodd" d="M9.2414 8.94043H9.57899L9.50403 9.27832H9.69183L9.63544 9.54113H9.46661L9.37269 10.0481C9.354 10.142 9.37269 10.236 9.56048 10.1982L9.52306 10.48C9.32036 10.6339 8.91458 10.5212 8.97842 10.142L9.2414 8.94043Z" fill="white"/>
<path fill-rule="evenodd" clip-rule="evenodd" d="M10.7472 9.97294C10.7847 9.76641 10.8786 9.25964 10.2742 9.25964C9.71116 9.25964 9.63598 9.82285 9.63598 9.89775C9.61747 9.97294 9.61747 10.5361 10.218 10.5361C10.3681 10.5361 10.5784 10.5174 10.6723 10.4799L10.7285 10.217C10.6723 10.2359 10.4807 10.2547 10.3306 10.2547C10.1993 10.2547 9.97408 10.2547 10.0115 9.97288L10.7472 9.97294Z" fill="white"/>
<path fill-rule="evenodd" clip-rule="evenodd" d="M6.65096 10.5361L6.95136 8.99658H6.36567L5.95262 9.93544L5.87747 8.99658H5.33314L5.03271 10.5361H5.37058L5.59607 9.42844L5.68995 10.5361H6.00908L6.49704 9.44718L6.29048 10.5361H6.65096Z" fill="white"/>
<path fill-rule="evenodd" clip-rule="evenodd" d="M7.04466 9.29705L6.98844 9.57882C7.08236 9.57882 7.30752 9.54111 7.42013 9.54111C7.53279 9.54111 7.68288 9.52243 7.62672 9.71023C7.53279 9.71023 6.9132 9.6163 6.81933 10.1608C6.76701 10.5212 7.19491 10.6527 7.45761 10.48L7.49526 10.5549H7.81417L7.94575 9.86026C8.0846 9.23315 7.48024 9.22186 7.04466 9.29705Z" fill="white"/>
<path fill-rule="evenodd" clip-rule="evenodd" d="M12.6352 9.4098C12.5488 9.35713 12.4962 9.35713 12.3874 9.35713C12.2823 9.35713 12.0344 9.46235 12.0006 9.74384C11.948 10.0969 12.1771 10.2547 12.5111 10.1495L12.6014 10.45C12.0308 10.7353 11.4861 10.2921 11.6665 9.6012C11.8127 9.07926 12.5037 8.76395 12.8492 9.19576L12.6352 9.4098Z" fill="white"/>
<path fill-rule="evenodd" clip-rule="evenodd" d="M15.6123 9.40991C14.6924 8.71887 14.3356 10.5363 15.049 10.5363C15.1616 10.5363 15.2745 10.4801 15.3494 10.4424L15.3868 10.5363H15.7624L16.0629 8.92163H15.7061L15.6123 9.40991Z" fill="white"/>
<path fill-rule="evenodd" clip-rule="evenodd" d="M12.9055 9.29705L12.8493 9.57882C12.9429 9.57882 13.1684 9.54111 13.2808 9.54111C13.3937 9.54111 13.525 9.52243 13.4875 9.71023C13.3937 9.71023 12.7742 9.6163 12.6805 10.1608C12.6425 10.4235 12.868 10.5549 13.0371 10.5549C13.2058 10.5549 13.2622 10.5174 13.3185 10.48L13.3559 10.5549H13.6753L13.8066 9.86025C13.9494 9.23315 13.3447 9.22186 12.9055 9.29705Z" fill="white"/>
<path fill-rule="evenodd" clip-rule="evenodd" d="M10.0112 9.72896H10.443C10.4917 9.38718 10.0825 9.45486 10.0112 9.72896Z" fill="#EB2230"/>
<path fill-rule="evenodd" clip-rule="evenodd" d="M7.57104 9.97296C7.51459 9.97296 7.38324 9.93549 7.27035 10.0107C7.15803 10.0856 7.12032 10.217 7.25184 10.2547C7.36422 10.2921 7.51459 10.217 7.55201 10.1043L7.57104 9.97296Z" fill="#EB2230"/>
<path fill-rule="evenodd" clip-rule="evenodd" d="M15.4437 9.61636C15.3311 9.46599 15.0872 9.57894 15.012 9.86037C14.9558 10.0482 15.0684 10.1796 15.181 10.1796C15.4176 10.1796 15.5602 9.79292 15.4437 9.61636Z" fill="#FBB230"/>
<path fill-rule="evenodd" clip-rule="evenodd" d="M13.4506 9.97296C13.3945 9.97296 13.2631 9.93549 13.1502 10.0107C13.0379 10.0856 13.0002 10.217 13.1318 10.2547C13.2441 10.2921 13.4133 10.217 13.4319 10.1043L13.4506 9.97296Z" fill="#FBB230"/>
<path fill-rule="evenodd" clip-rule="evenodd" d="M10.7471 10.5549L10.7661 10.4235L10.9913 9.27832H11.2915L11.3289 9.40972C11.3854 9.35328 11.4793 9.27832 11.667 9.27832L11.5731 9.61626C11.5018 9.61626 11.3515 9.60113 11.2389 9.90159C11.175 10.0743 11.1375 10.3673 11.1037 10.5549H10.7471Z" fill="white"/>
<path fill-rule="evenodd" clip-rule="evenodd" d="M8.93003 9.5864H8.91484H8.9L8.88516 9.58256L8.87003 9.57895H8.8549L8.84 9.57506C8.77232 9.56766 8.7161 9.56377 8.64865 9.56766C8.47576 9.5825 8.40086 9.69127 8.54711 9.77391C8.66355 9.84165 8.75381 9.8303 8.83232 9.90554C9.00143 10.0631 8.91496 10.3674 8.72716 10.4837L8.69358 10.4988L8.6561 10.5139L8.61484 10.5249L8.57742 10.5362C8.39708 10.5662 8.15312 10.5588 7.97656 10.4988L8.02533 10.247C8.16797 10.2771 8.40092 10.341 8.50969 10.2661C8.63364 10.1834 8.52098 10.0857 8.43066 10.0444L8.38579 10.0294L8.34092 10.0108C7.98407 9.84904 8.06693 9.41723 8.40453 9.3272C8.53971 9.29718 8.6749 9.29718 8.81393 9.30846H8.84006C8.87398 9.31208 8.90401 9.31597 8.93398 9.32336H8.94888L8.96017 9.3272H8.97146L8.97885 9.33104H8.99014L8.93003 9.5864Z" fill="white"/>
</g>
</g>
<g clip-path="url(#clip1_8_459)">
<path d="M38.6821 20.1746C44.205 20.1746 48.6821 15.6974 48.6821 10.1746C48.6821 4.65171 44.205 0.174561 38.6821 0.174561C33.1593 0.174561 28.6821 4.65171 28.6821 10.1746C28.6821 15.6974 33.1593 20.1746 38.6821 20.1746Z" fill="#26A17B"/>
<path d="M44.1478 7.84081C43.6484 7.48644 43.114 7.10831 42.5915 6.73331C42.5796 6.72456 42.5684 6.71581 42.554 6.70706C42.4928 6.65678 42.4235 6.61726 42.349 6.59019L42.3428 6.58706C40.9447 6.24399 39.547 5.8994 38.1496 5.55331L34.4096 4.63019L34.3115 4.60394C34.199 4.57206 34.069 4.53644 33.9303 4.55394C33.8922 4.55976 33.856 4.57384 33.824 4.59519L33.789 4.62456C33.7452 4.6695 33.7117 4.72346 33.6909 4.78269L33.6821 4.80644V4.94081L33.6884 4.96144C34.4759 7.20206 35.2846 9.47518 36.0646 11.6746C36.6653 13.3683 37.2896 15.1221 37.8984 16.8446C37.9359 16.9614 38.0428 17.0383 38.1759 17.0496H38.2046C38.2628 17.0511 38.3203 17.0369 38.3711 17.0085C38.4219 16.9801 38.4641 16.9386 38.4934 16.8883L40.7809 13.5052C41.3378 12.6821 41.8953 11.8564 42.4528 11.0333L43.1371 10.0196C43.5121 9.46331 43.8996 8.88894 44.284 8.32956L44.304 8.30081V8.26518C44.3128 8.16268 44.3153 7.95269 44.1478 7.84081ZM41.4678 9.07394C40.9303 9.35769 40.3821 9.65081 39.8303 9.94081L40.7953 8.89206C41.1965 8.45269 41.6153 7.99831 42.0253 7.55331L42.034 7.54456C42.0684 7.49768 42.1121 7.45393 42.1584 7.40706C42.1896 7.37519 42.2246 7.34269 42.2565 7.30456C42.4703 7.45456 42.6865 7.60644 42.8946 7.75581C43.0446 7.86394 43.1978 7.97268 43.354 8.08081C42.7231 8.40768 42.0943 8.73873 41.4678 9.07394ZM40.0878 8.93331C39.6746 9.38706 39.2471 9.85269 38.8228 10.3127C37.9991 9.29925 37.1731 8.28779 36.3446 7.27831L35.2328 5.92206L35.2303 5.91894C35.1465 5.82269 35.0653 5.71706 34.9846 5.61768C34.9328 5.55018 34.8778 5.48581 34.8228 5.41831C35.1578 5.50581 35.4959 5.58831 35.8278 5.66706C36.1196 5.73769 36.4228 5.81081 36.7203 5.88706L41.7484 7.12581C41.1909 7.72956 40.6303 8.34144 40.0878 8.93331ZM38.6346 14.6421C38.6665 14.3346 38.7015 14.0183 38.7303 13.7077C38.7565 13.4583 38.7821 13.2039 38.8084 12.9608C38.8484 12.5708 38.8921 12.1671 38.9271 11.7714L38.9353 11.7014C38.964 11.4489 38.9928 11.1889 39.0103 10.9277C39.0439 10.9087 39.0788 10.892 39.1146 10.8777C39.1578 10.8577 39.2009 10.8402 39.244 10.8139C39.9111 10.4584 40.5792 10.1049 41.2484 9.75331C41.9159 9.40206 42.6003 9.03831 43.279 8.67831C42.6631 9.58284 42.0498 10.4891 41.439 11.3971C40.9221 12.1608 40.3909 12.9489 39.8621 13.7252C39.6546 14.0358 39.4378 14.3521 39.2328 14.6564C39.0015 14.9964 38.7646 15.3446 38.534 15.6939C38.5628 15.3421 38.5971 14.9877 38.6346 14.6421ZM34.6096 6.10956C34.5721 6.00394 34.5309 5.89581 34.4965 5.79331C35.2765 6.74831 36.0615 7.70894 36.8271 8.64019C37.2228 9.12331 37.6184 9.60394 38.014 10.0902C38.0921 10.1808 38.1703 10.2777 38.2453 10.3714C38.3434 10.4914 38.4415 10.6177 38.5484 10.7377C38.5134 11.0389 38.4846 11.3439 38.4528 11.6364C38.4328 11.8414 38.4128 12.0471 38.3896 12.2552V12.2577C38.3809 12.3889 38.3634 12.5214 38.349 12.6502L38.2828 13.2333L38.2796 13.2533C38.2278 13.8452 38.164 14.4427 38.1034 15.0227C38.0778 15.2627 38.0546 15.5089 38.0284 15.7552C38.014 15.7114 37.9971 15.6671 37.9821 15.6258C37.9381 15.5064 37.8958 15.3864 37.8553 15.2658L37.5459 14.3958L34.609 6.10956" fill="white"/>
</g>
<g clip-path="url(#clip2_8_459)">
<path d="M66.6816 20.1746C72.2045 20.1746 76.6816 15.6974 76.6816 10.1746C76.6816 4.65173 72.2045 0.174561 66.6816 0.174561C61.1588 0.174561 56.6816 4.65173 56.6816 10.1746C56.6816 15.6974 61.1588 20.1746 66.6816 20.1746Z" fill="#8DC351"/>
<path d="M71.3651 8.48121C70.8918 8.24121 70.3218 8.19121 69.6618 8.33454C70.2318 7.59121 70.2518 6.77787 69.7218 5.90121C69.5318 5.58121 69.3018 5.33454 69.0285 5.16454C68.7551 4.99121 68.4551 4.89454 68.1185 4.87121C67.7851 4.84787 67.4418 4.87121 67.0985 4.93787C66.7518 5.00787 66.3718 5.11787 65.9551 5.27454L65.0418 3.36121L63.8718 3.91787L64.7585 5.77787C64.5551 5.87454 64.2485 6.02787 63.8385 6.23454L62.9451 4.35787L61.7751 4.91454L62.6885 6.82787C62.5251 6.91121 62.2785 7.03121 61.9551 7.18787L60.3418 7.94787L60.9351 9.19454L61.7785 8.79121C62.1618 8.60787 62.4718 8.67121 62.7018 8.98454L63.7418 11.1645C63.7918 11.1412 63.8351 11.1245 63.8685 11.1145L63.7485 11.1712L65.2051 14.2245C65.2885 14.5012 65.2018 14.7012 64.9485 14.8212L64.1051 15.2245L64.5318 16.7279L66.0518 16.0045C66.1485 15.9579 66.2885 15.8945 66.4718 15.8079C66.6551 15.7245 66.7918 15.6612 66.8851 15.6145L67.8085 17.5512L68.9785 16.9945L68.0651 15.0812C68.2818 14.9845 68.5918 14.8412 68.9951 14.6479L69.9051 16.5545L71.0751 15.9979L70.1518 14.0612C70.5585 13.8445 70.9085 13.6279 71.2018 13.4212C71.4951 13.2112 71.7618 12.9779 71.9985 12.7179C72.2351 12.4579 72.4085 12.1945 72.5218 11.9212C72.6351 11.6512 72.6918 11.3479 72.6885 11.0112C72.6885 10.6779 72.6185 10.3212 72.4818 9.94454C72.2118 9.20787 71.8418 8.71787 71.3651 8.48121ZM64.5185 7.58787C64.5551 7.57121 64.6518 7.52121 64.8151 7.44121C64.9785 7.36121 65.1151 7.29121 65.2218 7.23787C65.3285 7.18454 65.4785 7.12121 65.6718 7.04787C65.8651 6.97454 66.0285 6.92121 66.1685 6.88454C66.3085 6.84787 66.4651 6.82454 66.6451 6.81121C66.8251 6.79787 66.9785 6.81121 67.1118 6.85121C67.2418 6.89121 67.3718 6.96121 67.4951 7.06121C67.6185 7.16121 67.7218 7.29454 67.8018 7.46121C67.8685 7.60454 67.9085 7.74454 67.9185 7.88121C67.9285 8.01787 67.9051 8.14787 67.8518 8.27121C67.7985 8.39454 67.7385 8.50787 67.6685 8.61121C67.5985 8.71454 67.4985 8.82121 67.3685 8.92787C67.2351 9.03454 67.1185 9.12454 67.0185 9.19787C66.9151 9.27121 66.7851 9.35121 66.6218 9.43787C66.4585 9.52454 66.3351 9.59121 66.2485 9.63454C66.1651 9.67787 66.0451 9.73454 65.8951 9.80454C65.7451 9.87454 65.6551 9.91454 65.6318 9.92454L64.5185 7.58787ZM70.1785 11.2379C70.1851 11.3779 70.1718 11.5079 70.1385 11.6312C70.1018 11.7545 70.0385 11.8779 69.9485 12.0012C69.8551 12.1279 69.7618 12.2379 69.6651 12.3312C69.5685 12.4279 69.4451 12.5312 69.2951 12.6379C69.1451 12.7479 69.0118 12.8379 68.8918 12.9079C68.7751 12.9812 68.6318 13.0612 68.4618 13.1512C68.2918 13.2412 68.1618 13.3079 68.0651 13.3545C67.9685 13.4012 67.8451 13.4579 67.6985 13.5245C67.5518 13.5912 67.4551 13.6345 67.4151 13.6545L66.1918 11.0879C66.2318 11.0679 66.3518 11.0079 66.5485 10.9079C66.7451 10.8079 66.9085 10.7279 67.0351 10.6679C67.1618 10.6079 67.3385 10.5312 67.5685 10.4412C67.7985 10.3512 67.9951 10.2845 68.1618 10.2412C68.3285 10.1979 68.5151 10.1679 68.7251 10.1445C68.9351 10.1212 69.1185 10.1312 69.2718 10.1679C69.4251 10.2045 69.5751 10.2779 69.7185 10.3845C69.8618 10.4912 69.9785 10.6345 70.0651 10.8145C70.1351 10.9579 70.1718 11.0979 70.1785 11.2379Z" fill="white"/>
</g>
<g clip-path="url(#clip3_8_459)">
<path d="M94.6816 20.1746C100.204 20.1746 104.682 15.6974 104.682 10.1746C104.682 4.65171 100.204 0.174561 94.6816 0.174561C89.1588 0.174561 84.6816 4.65171 84.6816 10.1746C84.6816 15.6974 89.1588 20.1746 94.6816 20.1746Z" fill="#EB0029"/>
<path fill-rule="evenodd" clip-rule="evenodd" d="M90.1606 5.53245C90.2523 5.77601 94.1198 15.4779 94.129 15.487C94.1395 15.4976 99.6677 8.79178 99.6816 8.75164C99.6886 8.73156 97.7602 6.90162 97.7093 6.88006C97.688 6.871 95.9911 6.55601 93.9385 6.18009C91.8859 5.80417 90.1919 5.49323 90.174 5.48914C90.1464 5.48279 90.1444 5.48931 90.1606 5.53245ZM94.3001 6.78071C95.7878 7.05353 97.0051 7.28257 97.0051 7.28971C97.0051 7.3029 94.9876 8.98203 94.9246 9.02129C94.8952 9.03964 94.6583 8.85076 93.2428 7.6806C91.3686 6.13128 91.553 6.28582 91.5768 6.28517C91.5869 6.2849 92.8123 6.50789 94.3001 6.78071ZM92.9393 8.11075C94.1591 9.12082 94.6649 9.55071 94.66 9.57334C94.6562 9.59095 94.5352 10.5883 94.391 11.7896C94.2468 12.991 94.1245 13.9867 94.1193 14.0024C94.1141 14.018 93.4543 12.3856 92.653 10.3747C91.8517 8.36392 91.1912 6.70667 91.1852 6.692C91.1792 6.67731 91.1827 6.66865 91.193 6.67275C91.2033 6.67682 91.9891 7.32393 92.9393 8.11075ZM98.1879 8.0399C98.5029 8.33793 98.7573 8.58503 98.7533 8.58906C98.7406 8.60168 95.666 9.15403 95.6383 9.14864C95.6149 9.14406 97.5745 7.49807 97.6034 7.49807C97.6098 7.49807 97.8729 7.7419 98.1879 8.0399ZM98.642 9.1916C98.5519 9.32259 94.6609 14.0324 94.6572 14.0148C94.6548 14.0029 94.7679 13.0449 94.9085 11.8859L95.1643 9.77856L96.8706 9.46764C97.8091 9.2966 98.5975 9.15589 98.6227 9.1549C98.6645 9.15326 98.6661 9.15645 98.642 9.1916Z" fill="white"/>
</g>
<g clip-path="url(#clip4_8_459)">
<path d="M122.682 20.1746C128.204 20.1746 132.682 15.6974 132.682 10.1746C132.682 4.65173 128.204 0.174561 122.682 0.174561C117.159 0.174561 112.682 4.65173 112.682 10.1746C112.682 15.6974 117.159 20.1746 122.682 20.1746Z" fill="url(#paint0_linear_8_459)"/>
<path d="M122.681 12.2945L118.845 10.4712L122.681 17.1745L126.518 10.4712L122.681 12.2945Z" fill="white"/>
<path d="M126.099 9.11123L122.682 3.17456L119.259 9.11789L122.682 7.49456L126.099 9.11123Z" fill="white"/>
<path d="M119.555 9.88787L122.681 11.3679L125.811 9.88454L122.681 8.40454L119.555 9.88787Z" fill="white"/>
</g>
<g clip-path="url(#clip5_8_459)">
<path d="M150.651 0.216553L153.11 2.73567L146.916 8.92973L144.457 6.46989L150.651 0.216553Z" fill="#F0B90B" stroke="#F0B90B" stroke-width="0.0592733"/>
<path d="M154.385 3.95093L156.845 6.47004L146.916 16.3983L144.457 13.9385L154.385 3.95093Z" fill="#F0B90B" stroke="#F0B90B" stroke-width="0.0592733"/>
<path d="M143.182 7.6853L145.642 10.2044L143.182 12.6643L140.723 10.2044L143.182 7.6853Z" fill="#F0B90B" stroke="#F0B90B" stroke-width="0.0592733"/>
<path d="M158.119 7.6853L160.579 10.2044L150.651 20.1327L148.191 17.6729L158.119 7.6853Z" fill="#F0B90B" stroke="#F0B90B" stroke-width="0.0592733"/>
</g>
<defs>
<linearGradient id="paint0_linear_8_459" x1="122.682" y1="0.174561" x2="122.682" y2="20.1746" gradientUnits="userSpaceOnUse">
<stop stop-color="#4A819F"/>
<stop offset="1" stop-color="#034681"/>
</linearGradient>
<clipPath id="clip0_8_459">
<rect width="20" height="12.4928" fill="white" transform="translate(0.681641 3.39966)"/>
</clipPath>
<clipPath id="clip1_8_459">
<rect width="20" height="20" fill="white" transform="translate(28.6816 0.174561)"/>
</clipPath>
<clipPath id="clip2_8_459">
<rect width="20" height="20" fill="white" transform="translate(56.6816 0.174561)"/>
</clipPath>
<clipPath id="clip3_8_459">
<rect width="20" height="20" fill="white" transform="translate(84.6816 0.174561)"/>
</clipPath>
<clipPath id="clip4_8_459">
<rect width="20" height="20" fill="white" transform="translate(112.682 0.174561)"/>
</clipPath>
<clipPath id="clip5_8_459">
<rect width="19.9401" height="20" fill="white" transform="translate(140.682 0.174561)"/>
</clipPath>
</defs>
</svg>
