<svg width="161" height="21" viewBox="0 0 161 21" fill="none" xmlns="http://www.w3.org/2000/svg">
<g clip-path="url(#clip0_8_527)">
<path d="M10.6821 20.1746C16.205 20.1746 20.6821 15.6974 20.6821 10.1746C20.6821 4.65171 16.205 0.174561 10.6821 0.174561C5.15928 0.174561 0.682129 4.65171 0.682129 10.1746C0.682129 15.6974 5.15928 20.1746 10.6821 20.1746Z" fill="#26A17B"/>
<path d="M16.1478 7.84081C15.6484 7.48644 15.114 7.10831 14.5915 6.73331C14.5796 6.72456 14.5684 6.71581 14.554 6.70706C14.4928 6.65678 14.4235 6.61726 14.349 6.59019L14.3428 6.58706C12.9447 6.24399 11.547 5.8994 10.1496 5.55331L6.40963 4.63019L6.3115 4.60394C6.199 4.57206 6.069 4.53644 5.93025 4.55394C5.89225 4.55976 5.85598 4.57384 5.824 4.59519L5.789 4.62456C5.74518 4.6695 5.71169 4.72346 5.69088 4.78269L5.68213 4.80644V4.94081L5.68838 4.96144C6.47588 7.20206 7.28463 9.47518 8.06463 11.6746C8.66525 13.3683 9.28963 15.1221 9.89838 16.8446C9.93588 16.9614 10.0428 17.0383 10.1759 17.0496H10.2046C10.2628 17.0511 10.3203 17.0369 10.3711 17.0085C10.4219 16.9801 10.4641 16.9386 10.4934 16.8883L12.7809 13.5052C13.3378 12.6821 13.8953 11.8564 14.4528 11.0333L15.1371 10.0196C15.5121 9.46331 15.8996 8.88894 16.284 8.32956L16.304 8.30081V8.26518C16.3128 8.16268 16.3153 7.95269 16.1478 7.84081ZM13.4678 9.07394C12.9303 9.35769 12.3821 9.65081 11.8303 9.94081L12.7953 8.89206C13.1965 8.45269 13.6153 7.99831 14.0253 7.55331L14.034 7.54456C14.0684 7.49768 14.1121 7.45393 14.1584 7.40706C14.1896 7.37519 14.2246 7.34269 14.2565 7.30456C14.4703 7.45456 14.6865 7.60644 14.8946 7.75581C15.0446 7.86394 15.1978 7.97268 15.354 8.08081C14.7231 8.40768 14.0943 8.73873 13.4678 9.07394ZM12.0878 8.93331C11.6746 9.38706 11.2471 9.85269 10.8228 10.3127C9.99914 9.29925 9.17309 8.28779 8.34463 7.27831L7.23275 5.92206L7.23025 5.91894C7.1465 5.82269 7.06525 5.71706 6.98463 5.61768C6.93275 5.55018 6.87775 5.48581 6.82275 5.41831C7.15775 5.50581 7.49588 5.58831 7.82775 5.66706C8.11963 5.73769 8.42275 5.81081 8.72025 5.88706L13.7484 7.12581C13.1909 7.72956 12.6303 8.34144 12.0878 8.93331ZM10.6346 14.6421C10.6665 14.3346 10.7015 14.0183 10.7303 13.7077C10.7565 13.4583 10.7821 13.2039 10.8084 12.9608C10.8484 12.5708 10.8921 12.1671 10.9271 11.7714L10.9353 11.7014C10.964 11.4489 10.9928 11.1889 11.0103 10.9277C11.0439 10.9087 11.0788 10.892 11.1146 10.8777C11.1578 10.8577 11.2009 10.8402 11.244 10.8139C11.9111 10.4584 12.5792 10.1049 13.2484 9.75331C13.9159 9.40206 14.6003 9.03831 15.279 8.67831C14.6631 9.58284 14.0498 10.4891 13.439 11.3971C12.9221 12.1608 12.3909 12.9489 11.8621 13.7252C11.6546 14.0358 11.4378 14.3521 11.2328 14.6564C11.0015 14.9964 10.7646 15.3446 10.534 15.6939C10.5628 15.3421 10.5971 14.9877 10.6346 14.6421ZM6.60963 6.10956C6.57213 6.00394 6.53088 5.89581 6.4965 5.79331C7.2765 6.74831 8.0615 7.70894 8.82713 8.64019C9.22275 9.12331 9.61838 9.60394 10.014 10.0902C10.0921 10.1808 10.1703 10.2777 10.2453 10.3714C10.3434 10.4914 10.4415 10.6177 10.5484 10.7377C10.5134 11.0389 10.4846 11.3439 10.4528 11.6364C10.4328 11.8414 10.4128 12.0471 10.3896 12.2552V12.2577C10.3809 12.3889 10.3634 12.5214 10.349 12.6502L10.2828 13.2333L10.2796 13.2533C10.2278 13.8452 10.164 14.4427 10.1034 15.0227C10.0778 15.2627 10.0546 15.5089 10.0284 15.7552C10.014 15.7114 9.99713 15.6671 9.98213 15.6258C9.9381 15.5064 9.8958 15.3864 9.85525 15.2658L9.54588 14.3958L6.609 6.10956" fill="white"/>
</g>
<g clip-path="url(#clip1_8_527)">
<mask id="mask0_8_527" style="mask-type:luminance" maskUnits="userSpaceOnUse" x="28" y="3" width="21" height="13">
<path d="M48.6826 3.39966H28.6826V15.8925H48.6826V3.39966Z" fill="white"/>
</mask>
<g mask="url(#mask0_8_527)">
<path fill-rule="evenodd" clip-rule="evenodd" d="M48.6433 15.2451C48.6433 15.613 48.3429 15.9135 47.9751 15.9135H29.3274C28.9596 15.9135 28.6592 15.613 28.6592 15.2451V4.08886C28.6592 3.7209 28.9596 3.42041 29.3274 3.42041H47.9751C48.343 3.42041 48.6434 3.7209 48.6434 4.08886L48.6433 15.2451Z" fill="#14477C"/>
<path fill-rule="evenodd" clip-rule="evenodd" d="M41.0482 13.2511L41.2321 13.2475L41.4163 13.2362L41.5964 13.2098L41.7729 13.1797L41.9456 13.1384L42.1182 13.0935L42.2834 13.0333L42.4487 12.9697L42.6061 12.898L42.7601 12.8193L42.9104 12.7328L43.0569 12.6391L43.1995 12.5378L43.3347 12.4326L43.4622 12.32L43.5896 12.1996L43.7062 12.0757L43.819 11.9443L43.9278 11.809L44.0291 11.6703L44.1192 11.5237L44.2095 11.3737L44.2844 11.2197L44.3596 11.0583L44.4234 10.8966L44.4798 10.7278L44.5286 10.5587L44.5697 10.386L44.6 10.2056L44.6225 10.0293L44.6373 9.84512L44.641 9.6614L44.6373 9.47716L44.6225 9.29315L44.6 9.11665L44.5697 8.94042L44.5286 8.76743L44.4798 8.59865L44.4234 8.4295L44.3596 8.26814L44.2844 8.11031L44.2095 7.9564L44.1192 7.80624L44.0291 7.65978L43.9278 7.52094L43.819 7.38573L43.7062 7.25435L43.5896 7.13041L43.4622 7.01394L43.3347 6.9013L43.1995 6.79252L43.0569 6.69475L42.9104 6.6008L42.7601 6.5146L42.6061 6.43556L42.4487 6.36423L42.2834 6.3006L42.1182 6.24417L41.9456 6.19541L41.7729 6.1541L41.5964 6.12408L41.4163 6.1015L41.2321 6.08639L41.0482 6.08276L40.8643 6.08639L40.6842 6.1015L40.5039 6.12408L40.3276 6.1541L40.1547 6.19541L39.9821 6.24417L39.8167 6.3006L39.6553 6.36423L39.4976 6.43556L39.3437 6.5146L39.1936 6.6008L39.0471 6.69475L38.9083 6.79252L38.7729 6.9013L38.6416 7.01394L38.5179 7.13041L38.3976 7.25435L38.2888 7.38573L38.1798 7.52094L38.0822 7.65978L37.9884 7.80624L37.9022 7.9564L37.8232 8.11031L37.7519 8.26814L37.688 8.4295L37.6318 8.59865L37.5831 8.76743L37.5415 8.94042L37.5118 9.11665L37.4891 9.29315L37.4741 9.47716L37.4702 9.6614L37.4741 9.84512L37.4891 10.0293L37.5118 10.2056L37.5415 10.386L37.5831 10.5587L37.6318 10.7278L37.688 10.8966L37.7519 11.0583L37.8232 11.2197L37.9022 11.3737L37.9884 11.5237L38.0822 11.6703L38.1798 11.809L38.2888 11.9443L38.3976 12.0757L38.5179 12.1996L38.6416 12.32L38.7729 12.4326L38.9083 12.5378L39.0471 12.6391L39.1936 12.7328L39.3437 12.8193L39.4976 12.898L39.6553 12.9697L39.8167 13.0333L39.9821 13.0935L40.1547 13.1384L40.3276 13.1797L40.5039 13.2098L40.6842 13.2362L40.8643 13.2475L41.0482 13.2511Z" fill="#FBB230"/>
<path fill-rule="evenodd" clip-rule="evenodd" d="M36.2539 13.2511L36.4378 13.2475L36.6179 13.2362L36.7983 13.2098L36.9745 13.1797L37.1474 13.1384L37.3203 13.0935L37.4853 13.0333L37.6466 12.9697L37.8044 12.898L37.9583 12.8193L38.1084 12.7328L38.2548 12.6391L38.3936 12.5378L38.5291 12.4326L38.6605 12.32L38.7841 12.1996L38.9044 12.0757L39.0134 11.9443L39.1222 11.809L39.2197 11.6703L39.3136 11.5237L39.3998 11.3737L39.4788 11.2197L39.5501 11.0583L39.614 10.8966L39.6701 10.7278L39.7191 10.5587L39.7605 10.386L39.7903 10.2056L39.8128 10.0293L39.828 9.84512L39.8318 9.6614L39.828 9.47716L39.8128 9.29315L39.7903 9.11665L39.7605 8.94042L39.7191 8.76743L39.6701 8.59865L39.614 8.4295L39.5501 8.26814L39.4788 8.11031L39.3998 7.9564L39.3136 7.80624L39.2197 7.65978L39.1222 7.52094L39.0134 7.38573L38.9044 7.25435L38.7841 7.13041L38.6605 7.01394L38.5291 6.9013L38.3936 6.79252L38.2548 6.69475L38.1084 6.6008L37.9583 6.5146L37.8044 6.43556L37.6466 6.36423L37.4853 6.3006L37.3203 6.24417L37.1474 6.19541L36.9745 6.1541L36.7983 6.12408L36.6179 6.1015L36.4378 6.08639L36.2539 6.08276L36.07 6.08639L35.8858 6.1015L35.7057 6.12408L35.5292 6.1541L35.3568 6.19541L35.1839 6.24417L35.0187 6.3006L34.8535 6.36423L34.6959 6.43556L34.5421 6.5146L34.3917 6.6008L34.2455 6.69475L34.1028 6.79252L33.9674 6.9013L33.8399 7.01394L33.7124 7.13041L33.5959 7.25435L33.483 7.38573L33.3743 7.52094L33.273 7.65978L33.1829 7.80624L33.0926 7.9564L33.0177 8.11031L32.9425 8.26814L32.8787 8.4295L32.8225 8.59865L32.7735 8.76743L32.7361 8.94042L32.7021 9.11665L32.6799 9.29315L32.6647 9.47716L32.6611 9.6614L32.6647 9.84512L32.6799 10.0293L32.7021 10.2056L32.7361 10.386L32.7735 10.5587L32.8225 10.7278L32.8787 10.8966L32.9425 11.0583L33.0177 11.2197L33.0926 11.3737L33.1829 11.5237L33.273 11.6703L33.3743 11.809L33.483 11.9443L33.5959 12.0757L33.7124 12.1996L33.8399 12.32L33.9674 12.4326L34.1028 12.5378L34.2455 12.6391L34.3917 12.7328L34.5421 12.8193L34.6959 12.898L34.8535 12.9697L35.0187 13.0333L35.1839 13.0935L35.3568 13.1384L35.5292 13.1797L35.7057 13.2098L35.8858 13.2362L36.07 13.2475L36.2539 13.2511Z" fill="#EB2230"/>
<path fill-rule="evenodd" clip-rule="evenodd" d="M38.2324 7.45703H40.1361V7.26172H38.3976L38.2324 7.45703Z" fill="#FBB230"/>
<path fill-rule="evenodd" clip-rule="evenodd" d="M37.9478 7.88879H40.1367V7.69348H38.0604L37.9478 7.88879Z" fill="#FBB230"/>
<path fill-rule="evenodd" clip-rule="evenodd" d="M37.7334 8.32091H40.1363V8.12561H37.8198L37.7334 8.32091Z" fill="#FBB230"/>
<path fill-rule="evenodd" clip-rule="evenodd" d="M37.5869 8.75247H40.1363V8.56104H37.6469L37.5869 8.75247Z" fill="#FBB230"/>
<path fill-rule="evenodd" clip-rule="evenodd" d="M37.6726 10.8481H40.1431V10.6528H37.6128L37.6726 10.8481Z" fill="#FBB230"/>
<path fill-rule="evenodd" clip-rule="evenodd" d="M37.8532 11.28H40.1434V11.0847H37.7632L37.8532 11.28Z" fill="#FBB230"/>
<path fill-rule="evenodd" clip-rule="evenodd" d="M38.1122 11.7117H40.1433V11.5164H37.9883L38.1122 11.7117Z" fill="#FBB230"/>
<path fill-rule="evenodd" clip-rule="evenodd" d="M38.4656 12.1435H40.1437V11.9482H38.293L38.4656 12.1435Z" fill="#FBB230"/>
<path fill-rule="evenodd" clip-rule="evenodd" d="M37.5005 9.18453H40.136V8.99292H37.538L37.5005 9.18453Z" fill="#FBB230"/>
<path fill-rule="evenodd" clip-rule="evenodd" d="M39.1069 10.4162H40.1132V10.2209H39.1446L39.1069 10.4162Z" fill="#FBB230"/>
<path fill-rule="evenodd" clip-rule="evenodd" d="M39.186 9.98412H40.1135V9.78882H39.2237L39.186 9.98412Z" fill="#FBB230"/>
<path fill-rule="evenodd" clip-rule="evenodd" d="M37.4331 9.78882H37.6959V9.98412H37.4483L37.4331 9.78882Z" fill="#FBB230"/>
<path fill-rule="evenodd" clip-rule="evenodd" d="M44.2962 11.6815C44.3901 11.6815 44.4653 11.7603 44.4653 11.8503C44.4653 11.9443 44.3901 12.0194 44.2962 12.0194C44.2023 12.0194 44.1274 11.9443 44.1274 11.8503C44.1274 11.7603 44.2023 11.6815 44.2962 11.6815ZM44.2962 11.7115C44.3752 11.7115 44.4388 11.7754 44.4388 11.8503C44.4388 11.9294 44.3753 11.9932 44.2962 11.9932C44.2213 11.9932 44.1571 11.9294 44.1571 11.8503C44.1571 11.7754 44.2213 11.7115 44.2962 11.7115Z" fill="#FBB230"/>
<path d="M44.2324 11.9255V11.7828H44.2924C44.3073 11.7828 44.3186 11.7828 44.3262 11.7867C44.3335 11.7903 44.3375 11.7941 44.3411 11.7977C44.3447 11.8054 44.3485 11.8129 44.3485 11.8203C44.3485 11.8316 44.3447 11.8428 44.3411 11.8467C44.3334 11.8542 44.3224 11.858 44.3108 11.8616C44.3186 11.8655 44.3223 11.8693 44.3262 11.8729C44.3298 11.8767 44.3375 11.8842 44.3411 11.8954L44.3598 11.9255H44.3262L44.3034 11.8916C44.2994 11.8803 44.2922 11.8768 44.2885 11.8729C44.2885 11.8693 44.2846 11.8693 44.281 11.8655C44.2772 11.8655 44.2733 11.8655 44.2659 11.8655H44.262V11.9255H44.2324ZM44.2622 11.8428H44.2811C44.296 11.8428 44.3035 11.8428 44.3073 11.8393C44.3109 11.8393 44.3151 11.8393 44.3151 11.8354C44.3186 11.8316 44.3186 11.828 44.3186 11.8241C44.3186 11.8203 44.3186 11.8166 44.3151 11.8129C44.3109 11.8089 44.3073 11.8089 44.3035 11.8054C44.3035 11.8054 44.296 11.8054 44.2847 11.8054H44.2622V11.8428H44.2622Z" fill="#FBB230"/>
<path fill-rule="evenodd" clip-rule="evenodd" d="M44.2581 10.2698C44.352 10.2698 44.4269 10.3449 44.4269 10.4389C44.4269 10.5328 44.352 10.6077 44.2581 10.6077C44.1643 10.6077 44.0894 10.5328 44.0894 10.4389C44.0894 10.3449 44.1643 10.2698 44.2581 10.2698ZM44.2581 10.2997C44.3371 10.2997 44.4008 10.3636 44.4008 10.4388C44.4008 10.5176 44.3372 10.5815 44.2581 10.5815C44.1792 10.5815 44.1155 10.5176 44.1155 10.4388C44.1155 10.3636 44.1791 10.2997 44.2581 10.2997Z" fill="white"/>
<path d="M44.1943 10.51V10.3708H44.2544C44.2695 10.3708 44.2808 10.3708 44.2883 10.3747C44.292 10.3747 44.2992 10.3822 44.3031 10.386C44.3069 10.3934 44.3105 10.4009 44.3105 10.4086C44.3105 10.4199 44.3069 10.4273 44.2992 10.4347C44.2957 10.4422 44.2844 10.446 44.2731 10.4499C44.277 10.4534 44.2844 10.4573 44.2883 10.4612C44.292 10.4647 44.2957 10.4722 44.3031 10.4835L44.3221 10.51H44.2882L44.2656 10.4799C44.2581 10.4686 44.2543 10.4612 44.2505 10.4612C44.2469 10.4573 44.2469 10.4534 44.2433 10.4534C44.2391 10.4534 44.2356 10.4534 44.2281 10.4534H44.2207V10.5099L44.1943 10.51ZM44.2208 10.4312H44.2433C44.2582 10.4312 44.2656 10.4312 44.2695 10.4274C44.2731 10.4274 44.277 10.4235 44.277 10.4235C44.2808 10.4199 44.2808 10.416 44.2808 10.4122C44.2808 10.4086 44.277 10.4009 44.277 10.4009C44.2731 10.3973 44.2695 10.3934 44.2657 10.3934C44.2619 10.3934 44.2544 10.3934 44.2433 10.3934H44.2208L44.2208 10.4312Z" fill="white"/>
<path fill-rule="evenodd" clip-rule="evenodd" d="M41.8447 10.5361L42.0887 9.25964H42.3927L42.4304 9.39099C42.4866 9.33454 42.5804 9.25964 42.7682 9.25964L42.6744 9.59758C42.5918 9.59758 42.464 9.58245 42.3591 9.83025C42.2803 10.0181 42.2426 10.3296 42.2013 10.5361H41.8447Z" fill="white"/>
<path fill-rule="evenodd" clip-rule="evenodd" d="M37.2414 8.94043H37.579L37.504 9.27832H37.6918L37.6354 9.54113H37.4666L37.3727 10.0481C37.354 10.142 37.3727 10.236 37.5605 10.1982L37.5231 10.48C37.3204 10.6339 36.9146 10.5212 36.9784 10.142L37.2414 8.94043Z" fill="white"/>
<path fill-rule="evenodd" clip-rule="evenodd" d="M38.7472 9.97294C38.7847 9.76641 38.8786 9.25964 38.2742 9.25964C37.7112 9.25964 37.636 9.82285 37.636 9.89775C37.6175 9.97294 37.6175 10.5361 38.218 10.5361C38.3681 10.5361 38.5784 10.5174 38.6723 10.4799L38.7285 10.217C38.6723 10.2359 38.4807 10.2547 38.3306 10.2547C38.1993 10.2547 37.9741 10.2547 38.0115 9.97288L38.7472 9.97294Z" fill="white"/>
<path fill-rule="evenodd" clip-rule="evenodd" d="M34.651 10.5361L34.9514 8.99658H34.3657L33.9526 9.93544L33.8775 8.99658H33.3331L33.0327 10.5361H33.3706L33.5961 9.42844L33.69 10.5361H34.0091L34.497 9.44718L34.2905 10.5361H34.651Z" fill="white"/>
<path fill-rule="evenodd" clip-rule="evenodd" d="M35.0447 9.29705L34.9884 9.57882C35.0824 9.57882 35.3075 9.54111 35.4201 9.54111C35.5328 9.54111 35.6829 9.52243 35.6267 9.71023C35.5328 9.71023 34.9132 9.6163 34.8193 10.1608C34.767 10.5212 35.1949 10.6527 35.4576 10.48L35.4953 10.5549H35.8142L35.9457 9.86026C36.0846 9.23315 35.4802 9.22186 35.0447 9.29705Z" fill="white"/>
<path fill-rule="evenodd" clip-rule="evenodd" d="M40.6352 9.4098C40.5488 9.35713 40.4962 9.35713 40.3874 9.35713C40.2823 9.35713 40.0344 9.46235 40.0006 9.74384C39.948 10.0969 40.1771 10.2547 40.5111 10.1495L40.6014 10.45C40.0308 10.7353 39.4861 10.2921 39.6665 9.6012C39.8127 9.07926 40.5037 8.76395 40.8492 9.19576L40.6352 9.4098Z" fill="white"/>
<path fill-rule="evenodd" clip-rule="evenodd" d="M43.6123 9.40991C42.6924 8.71887 42.3356 10.5363 43.049 10.5363C43.1616 10.5363 43.2745 10.4801 43.3494 10.4424L43.3868 10.5363H43.7624L44.0629 8.92163H43.7061L43.6123 9.40991Z" fill="white"/>
<path fill-rule="evenodd" clip-rule="evenodd" d="M40.9055 9.29705L40.8493 9.57882C40.9429 9.57882 41.1684 9.54111 41.2808 9.54111C41.3937 9.54111 41.525 9.52243 41.4875 9.71023C41.3937 9.71023 40.7742 9.6163 40.6805 10.1608C40.6425 10.4235 40.868 10.5549 41.0371 10.5549C41.2058 10.5549 41.2622 10.5174 41.3185 10.48L41.3559 10.5549H41.6753L41.8066 9.86025C41.9494 9.23315 41.3447 9.22186 40.9055 9.29705Z" fill="white"/>
<path fill-rule="evenodd" clip-rule="evenodd" d="M38.0112 9.72896H38.443C38.4917 9.38718 38.0825 9.45486 38.0112 9.72896Z" fill="#EB2230"/>
<path fill-rule="evenodd" clip-rule="evenodd" d="M35.571 9.97296C35.5146 9.97296 35.3832 9.93549 35.2703 10.0107C35.158 10.0856 35.1203 10.217 35.2518 10.2547C35.3642 10.2921 35.5146 10.217 35.552 10.1043L35.571 9.97296Z" fill="#EB2230"/>
<path fill-rule="evenodd" clip-rule="evenodd" d="M43.4437 9.61636C43.3311 9.46599 43.0872 9.57894 43.012 9.86037C42.9558 10.0482 43.0684 10.1796 43.181 10.1796C43.4176 10.1796 43.5602 9.79292 43.4437 9.61636Z" fill="#FBB230"/>
<path fill-rule="evenodd" clip-rule="evenodd" d="M41.4506 9.97296C41.3945 9.97296 41.2631 9.93549 41.1502 10.0107C41.0379 10.0856 41.0002 10.217 41.1318 10.2547C41.2441 10.2921 41.4133 10.217 41.4319 10.1043L41.4506 9.97296Z" fill="#FBB230"/>
<path fill-rule="evenodd" clip-rule="evenodd" d="M38.7471 10.5549L38.7661 10.4235L38.9913 9.27832H39.2915L39.3289 9.40972C39.3854 9.35328 39.4793 9.27832 39.667 9.27832L39.5731 9.61626C39.5018 9.61626 39.3515 9.60113 39.2389 9.90159C39.175 10.0743 39.1375 10.3673 39.1037 10.5549H38.7471Z" fill="white"/>
<path fill-rule="evenodd" clip-rule="evenodd" d="M36.93 9.5864H36.9148H36.9L36.8852 9.58256L36.87 9.57895H36.8549L36.84 9.57506C36.7723 9.56766 36.7161 9.56377 36.6487 9.56766C36.4758 9.5825 36.4009 9.69127 36.5471 9.77391C36.6636 9.84165 36.7538 9.8303 36.8323 9.90554C37.0014 10.0631 36.915 10.3674 36.7272 10.4837L36.6936 10.4988L36.6561 10.5139L36.6148 10.5249L36.5774 10.5362C36.3971 10.5662 36.1531 10.5588 35.9766 10.4988L36.0253 10.247C36.168 10.2771 36.4009 10.341 36.5097 10.2661C36.6336 10.1834 36.521 10.0857 36.4307 10.0444L36.3858 10.0294L36.3409 10.0108C35.9841 9.84904 36.0669 9.41723 36.4045 9.3272C36.5397 9.29718 36.6749 9.29718 36.8139 9.30846H36.8401C36.874 9.31208 36.904 9.31597 36.934 9.32336H36.9489L36.9602 9.3272H36.9715L36.9789 9.33104H36.9901L36.93 9.5864Z" fill="white"/>
</g>
</g>
<g clip-path="url(#clip2_8_527)">
<path d="M66.6816 20.1746C72.2045 20.1746 76.6816 15.6974 76.6816 10.1746C76.6816 4.65171 72.2045 0.174561 66.6816 0.174561C61.1588 0.174561 56.6816 4.65171 56.6816 10.1746C56.6816 15.6974 61.1588 20.1746 66.6816 20.1746Z" fill="#EB0029"/>
<path fill-rule="evenodd" clip-rule="evenodd" d="M62.1606 5.53245C62.2523 5.77601 66.1198 15.4779 66.129 15.487C66.1395 15.4976 71.6677 8.79178 71.6816 8.75164C71.6886 8.73156 69.7602 6.90162 69.7093 6.88006C69.688 6.871 67.9911 6.55601 65.9385 6.18009C63.8859 5.80417 62.1919 5.49323 62.174 5.48914C62.1464 5.48279 62.1444 5.48931 62.1606 5.53245ZM66.3001 6.78071C67.7878 7.05353 69.0051 7.28257 69.0051 7.28971C69.0051 7.3029 66.9876 8.98203 66.9246 9.02129C66.8952 9.03964 66.6583 8.85076 65.2428 7.6806C63.3686 6.13128 63.553 6.28582 63.5768 6.28517C63.5869 6.2849 64.8123 6.50789 66.3001 6.78071ZM64.9393 8.11075C66.1591 9.12082 66.6649 9.55071 66.66 9.57334C66.6562 9.59095 66.5352 10.5883 66.391 11.7896C66.2468 12.991 66.1245 13.9867 66.1193 14.0024C66.1141 14.018 65.4543 12.3856 64.653 10.3747C63.8517 8.36392 63.1912 6.70667 63.1852 6.692C63.1792 6.67731 63.1827 6.66865 63.193 6.67275C63.2033 6.67682 63.9891 7.32393 64.9393 8.11075ZM70.1879 8.0399C70.5029 8.33793 70.7573 8.58503 70.7533 8.58906C70.7406 8.60168 67.666 9.15403 67.6383 9.14864C67.6149 9.14406 69.5745 7.49807 69.6034 7.49807C69.6098 7.49807 69.8729 7.7419 70.1879 8.0399ZM70.642 9.1916C70.5519 9.32259 66.6609 14.0324 66.6572 14.0148C66.6548 14.0029 66.7679 13.0449 66.9085 11.8859L67.1643 9.77856L68.8706 9.46764C69.8091 9.2966 70.5975 9.15589 70.6227 9.1549C70.6645 9.15326 70.6661 9.15645 70.642 9.1916Z" fill="white"/>
</g>
<g clip-path="url(#clip3_8_527)">
<path d="M94.6816 20.1746C100.204 20.1746 104.682 15.6974 104.682 10.1746C104.682 4.65173 100.204 0.174561 94.6816 0.174561C89.1588 0.174561 84.6816 4.65173 84.6816 10.1746C84.6816 15.6974 89.1588 20.1746 94.6816 20.1746Z" fill="#8DC351"/>
<path d="M99.3651 8.48121C98.8918 8.24121 98.3218 8.19121 97.6618 8.33454C98.2318 7.59121 98.2518 6.77787 97.7218 5.90121C97.5318 5.58121 97.3018 5.33454 97.0285 5.16454C96.7551 4.99121 96.4551 4.89454 96.1185 4.87121C95.7851 4.84787 95.4418 4.87121 95.0985 4.93787C94.7518 5.00787 94.3718 5.11787 93.9551 5.27454L93.0418 3.36121L91.8718 3.91787L92.7585 5.77787C92.5551 5.87454 92.2485 6.02787 91.8385 6.23454L90.9451 4.35787L89.7751 4.91454L90.6885 6.82787C90.5251 6.91121 90.2785 7.03121 89.9551 7.18787L88.3418 7.94787L88.9351 9.19454L89.7785 8.79121C90.1618 8.60787 90.4718 8.67121 90.7018 8.98454L91.7418 11.1645C91.7918 11.1412 91.8351 11.1245 91.8685 11.1145L91.7485 11.1712L93.2051 14.2245C93.2885 14.5012 93.2018 14.7012 92.9485 14.8212L92.1051 15.2245L92.5318 16.7279L94.0518 16.0045C94.1485 15.9579 94.2885 15.8945 94.4718 15.8079C94.6551 15.7245 94.7918 15.6612 94.8851 15.6145L95.8085 17.5512L96.9785 16.9945L96.0651 15.0812C96.2818 14.9845 96.5918 14.8412 96.9951 14.6479L97.9051 16.5545L99.0751 15.9979L98.1518 14.0612C98.5585 13.8445 98.9085 13.6279 99.2018 13.4212C99.4951 13.2112 99.7618 12.9779 99.9985 12.7179C100.235 12.4579 100.408 12.1945 100.522 11.9212C100.635 11.6512 100.692 11.3479 100.688 11.0112C100.688 10.6779 100.618 10.3212 100.482 9.94454C100.212 9.20787 99.8418 8.71787 99.3651 8.48121ZM92.5185 7.58787C92.5551 7.57121 92.6518 7.52121 92.8151 7.44121C92.9785 7.36121 93.1151 7.29121 93.2218 7.23787C93.3285 7.18454 93.4785 7.12121 93.6718 7.04787C93.8651 6.97454 94.0285 6.92121 94.1685 6.88454C94.3085 6.84787 94.4651 6.82454 94.6451 6.81121C94.8251 6.79787 94.9785 6.81121 95.1118 6.85121C95.2418 6.89121 95.3718 6.96121 95.4951 7.06121C95.6185 7.16121 95.7218 7.29454 95.8018 7.46121C95.8685 7.60454 95.9085 7.74454 95.9185 7.88121C95.9285 8.01787 95.9051 8.14787 95.8518 8.27121C95.7985 8.39454 95.7385 8.50787 95.6685 8.61121C95.5985 8.71454 95.4985 8.82121 95.3685 8.92787C95.2351 9.03454 95.1185 9.12454 95.0185 9.19787C94.9151 9.27121 94.7851 9.35121 94.6218 9.43787C94.4585 9.52454 94.3351 9.59121 94.2485 9.63454C94.1651 9.67787 94.0451 9.73454 93.8951 9.80454C93.7451 9.87454 93.6551 9.91454 93.6318 9.92454L92.5185 7.58787ZM98.1785 11.2379C98.1851 11.3779 98.1718 11.5079 98.1385 11.6312C98.1018 11.7545 98.0385 11.8779 97.9485 12.0012C97.8551 12.1279 97.7618 12.2379 97.6651 12.3312C97.5685 12.4279 97.4451 12.5312 97.2951 12.6379C97.1451 12.7479 97.0118 12.8379 96.8918 12.9079C96.7751 12.9812 96.6318 13.0612 96.4618 13.1512C96.2918 13.2412 96.1618 13.3079 96.0651 13.3545C95.9685 13.4012 95.8451 13.4579 95.6985 13.5245C95.5518 13.5912 95.4551 13.6345 95.4151 13.6545L94.1918 11.0879C94.2318 11.0679 94.3518 11.0079 94.5485 10.9079C94.7451 10.8079 94.9085 10.7279 95.0351 10.6679C95.1618 10.6079 95.3385 10.5312 95.5685 10.4412C95.7985 10.3512 95.9951 10.2845 96.1618 10.2412C96.3285 10.1979 96.5151 10.1679 96.7251 10.1445C96.9351 10.1212 97.1185 10.1312 97.2718 10.1679C97.4251 10.2045 97.5751 10.2779 97.7185 10.3845C97.8618 10.4912 97.9785 10.6345 98.0651 10.8145C98.1351 10.9579 98.1718 11.0979 98.1785 11.2379Z" fill="white"/>
</g>
<g clip-path="url(#clip4_8_527)">
<path d="M122.651 0.216553L125.11 2.73567L118.916 8.92973L116.457 6.46989L122.651 0.216553Z" fill="#F0B90B" stroke="#F0B90B" stroke-width="0.0592733"/>
<path d="M126.385 3.95093L128.845 6.47004L118.916 16.3983L116.457 13.9385L126.385 3.95093Z" fill="#F0B90B" stroke="#F0B90B" stroke-width="0.0592733"/>
<path d="M115.182 7.6853L117.642 10.2044L115.182 12.6643L112.723 10.2044L115.182 7.6853Z" fill="#F0B90B" stroke="#F0B90B" stroke-width="0.0592733"/>
<path d="M130.119 7.6853L132.579 10.2044L122.651 20.1327L120.191 17.6729L130.119 7.6853Z" fill="#F0B90B" stroke="#F0B90B" stroke-width="0.0592733"/>
</g>
<g clip-path="url(#clip5_8_527)">
<path d="M150.622 20.1746C156.145 20.1746 160.622 15.6974 160.622 10.1746C160.622 4.65173 156.145 0.174561 150.622 0.174561C145.099 0.174561 140.622 4.65173 140.622 10.1746C140.622 15.6974 145.099 20.1746 150.622 20.1746Z" fill="url(#paint0_linear_8_527)"/>
<path d="M150.622 12.2945L146.785 10.4712L150.622 17.1745L154.458 10.4712L150.622 12.2945Z" fill="white"/>
<path d="M154.038 9.11123L150.622 3.17456L147.198 9.11789L150.622 7.49456L154.038 9.11123Z" fill="white"/>
<path d="M147.495 9.88787L150.621 11.3679L153.751 9.88454L150.621 8.40454L147.495 9.88787Z" fill="white"/>
</g>
<defs>
<linearGradient id="paint0_linear_8_527" x1="150.622" y1="0.174561" x2="150.622" y2="20.1746" gradientUnits="userSpaceOnUse">
<stop stop-color="#4A819F"/>
<stop offset="1" stop-color="#034681"/>
</linearGradient>
<clipPath id="clip0_8_527">
<rect width="20" height="20" fill="white" transform="translate(0.681641 0.174561)"/>
</clipPath>
<clipPath id="clip1_8_527">
<rect width="20" height="12.4928" fill="white" transform="translate(28.6816 3.39966)"/>
</clipPath>
<clipPath id="clip2_8_527">
<rect width="20" height="20" fill="white" transform="translate(56.6816 0.174561)"/>
</clipPath>
<clipPath id="clip3_8_527">
<rect width="20" height="20" fill="white" transform="translate(84.6816 0.174561)"/>
</clipPath>
<clipPath id="clip4_8_527">
<rect width="19.9401" height="20" fill="white" transform="translate(112.682 0.174561)"/>
</clipPath>
<clipPath id="clip5_8_527">
<rect width="20" height="20" fill="white" transform="translate(140.622 0.174561)"/>
</clipPath>
</defs>
</svg>
